<svg width="20" height="20" viewBox="0 0 20 20" fill="none" xmlns="http://www.w3.org/2000/svg">
<path d="M6.85717 4.62496C7.4353 0.73571 13.034 0.752281 13.7143 4.62496M17.4184 6.3396L18.8334 15.4385C18.8782 15.7265 18.8595 16.0206 18.7787 16.3008C18.6979 16.581 18.5568 16.8406 18.3652 17.0618C18.1736 17.283 17.9359 17.4606 17.6684 17.5825C17.401 17.7043 17.1101 17.7676 16.8156 17.7678H3.18648C2.89186 17.7679 2.60072 17.7048 2.33301 17.5831C2.06531 17.4614 1.82737 17.2838 1.63552 17.0626C1.44366 16.8413 1.30243 16.5816 1.2215 16.3013C1.14056 16.021 1.12184 15.7267 1.16663 15.4385L2.58165 6.3396C2.65587 5.862 2.90049 5.42649 3.2712 5.11196C3.64191 4.79742 4.1142 4.62466 4.60252 4.62496H15.3996C15.8877 4.6249 16.3598 4.79778 16.7303 5.11229C17.1008 5.4268 17.3452 5.86217 17.4194 6.3396H17.4184Z" stroke="black" stroke-linejoin="round"/>
</svg>
